<svg width="23" height="22" viewBox="0 0 23 22" fill="none" xmlns="http://www.w3.org/2000/svg">
<g clip-path="url(#clip0_64_77)">
<path d="M11.5859 18.5618H4.18379C4.00532 18.5618 3.83416 18.4924 3.70796 18.3688C3.58176 18.2453 3.51086 18.0777 3.51086 17.9029V10.6555C3.51086 9.61727 3.71973 8.58918 4.12554 7.62995C4.53135 6.67072 5.12615 5.79914 5.87599 5.06498C6.62583 4.33082 7.51602 3.74845 8.49573 3.35112C9.47544 2.9538 10.5255 2.7493 11.5859 2.7493H11.5859C12.6464 2.7493 13.6964 2.9538 14.6761 3.35113C15.6558 3.74845 16.546 4.33082 17.2959 5.06499C18.0457 5.79915 18.6405 6.67073 19.0463 7.62996C19.4521 8.58919 19.661 9.61728 19.661 10.6555V10.6556C19.661 12.7524 18.8102 14.7634 17.2959 16.2461C15.7815 17.7288 13.7276 18.5618 11.5859 18.5618Z" stroke="#374151" stroke-width="1.5" stroke-linecap="round" stroke-linejoin="round"/>
<path d="M8.77734 9.6243H14.0437" stroke="#374151" stroke-width="1.5" stroke-linecap="round" stroke-linejoin="round"/>
<path d="M8.77734 12.3743H14.0437" stroke="#374151" stroke-width="1.5" stroke-linecap="round" stroke-linejoin="round"/>
</g>
<defs>
<clipPath id="clip0_64_77">
<rect width="22.4698" height="22" fill="white"/>
</clipPath>
</defs>
</svg>
