<svg width="20" height="17" viewBox="0 0 20 17" fill="none" xmlns="http://www.w3.org/2000/svg">
<path d="M1.06409 1.99982C1.06409 1.44753 1.5118 0.999817 2.06409 0.999817H17.4271C17.9794 0.999817 18.4271 1.44753 18.4271 1.99982V11.818C18.4271 12.3703 17.9794 12.818 17.4271 12.818H12.7787C12.4754 12.818 12.1885 12.9556 11.9987 13.1921L10.5255 15.0279C10.1252 15.5268 9.36597 15.5268 8.96566 15.0279L7.49243 13.1921C7.30263 12.9556 7.01576 12.818 6.71251 12.818H2.06409C1.5118 12.818 1.06409 12.3703 1.06409 11.818V1.99982Z" stroke="#374151" stroke-width="1.5" stroke-linejoin="round"/>
<path d="M6.1709 9.99982L7.02798 7.84597M12.299 9.99982L11.1848 7.84597M7.02798 7.84597L8.78385 3.43345C8.84886 3.27007 9.07792 3.26408 9.15139 3.42384L11.1848 7.84597M7.02798 7.84597H11.1848" stroke="#374151" stroke-width="1.5" stroke-linecap="round" stroke-linejoin="round"/>
</svg>
