<svg width="27" height="25" viewBox="0 0 27 25" fill="none" xmlns="http://www.w3.org/2000/svg">
<path d="M12.0833 24.549C5.40971 24.549 0 19.1393 0 12.4657C0 5.79204 5.40971 0.382328 12.0833 0.382328C13.9595 0.380918 15.8101 0.817053 17.4881 1.65608C19.1662 2.49511 20.6255 3.71391 21.75 5.21566H18.4754C17.0801 3.98529 15.3593 3.18368 13.5197 2.90702C11.6801 2.63036 9.79966 2.89041 8.10416 3.65596C6.40865 4.42151 4.97005 5.66004 3.961 7.22293C2.95195 8.78582 2.4153 10.6067 2.41546 12.467C2.41561 14.3273 2.95256 16.1481 3.96187 17.7108C4.97119 19.2735 6.40999 20.5118 8.10562 21.2771C9.80126 22.0424 11.6817 22.3021 13.5213 22.0251C15.3609 21.7482 17.0815 20.9463 18.4766 19.7157H21.7512C20.6265 21.2176 19.1671 22.4365 17.4888 23.2755C15.8105 24.1145 13.9597 24.5506 12.0833 24.549ZM20.5417 17.299V13.674H10.875V11.2573H20.5417V7.63233L26.5833 12.4657L20.5417 17.299Z" fill="#FF0000"/>
</svg>
