<svg width="21" height="21" viewBox="0 0 21 21" fill="none" xmlns="http://www.w3.org/2000/svg">
<path d="M13.1531 10.5C11.5408 12.5 8.92759 12.5 7.31677 10.5" stroke="#374151" stroke-width="1.5" stroke-linecap="round" stroke-linejoin="round"/>
<path d="M8.68148 3.4036C9.37665 2.21607 11.0931 2.21607 11.7883 3.4036L13.2083 5.82935C13.4564 6.25322 13.867 6.55729 14.3448 6.67105L17.1031 7.3278C18.4077 7.63843 18.9267 9.21545 18.0615 10.2401L16.1556 12.4973C15.8476 12.8621 15.6971 13.3343 15.7372 13.81L15.9844 16.7382C16.0991 18.0962 14.7215 19.0841 13.4721 18.5399L10.9536 17.443C10.4953 17.2434 9.97451 17.2434 9.51613 17.443L6.9977 18.5399C5.74823 19.0841 4.37069 18.0962 4.48533 16.7382L4.73253 13.81C4.77269 13.3343 4.62221 12.8621 4.3142 12.4973L2.4083 10.2401C1.54309 9.21545 2.06204 7.63843 3.36667 7.3278L6.12498 6.67105C6.60278 6.55729 7.01334 6.25322 7.26147 5.82935L8.68148 3.4036Z" stroke="#374151" stroke-width="1.5" stroke-linejoin="round"/>
</svg>
