<svg width="58" height="47" viewBox="0 0 58 47" fill="none" xmlns="http://www.w3.org/2000/svg">
<path d="M30.4436 11.419L30.3576 11.3956C29.9599 11.2871 29.7121 10.894 29.8395 10.5033C29.8395 10.5033 29.8396 10.5032 29.8396 10.5032L29.9822 10.5497L30.4436 11.419ZM30.4436 11.419L30.4478 11.4147M30.4436 11.419L30.4478 11.4147M30.4478 11.4147C30.8163 11.4717 31.1918 11.2716 31.3066 10.9175L30.4478 11.4147Z" fill="#FF3220" stroke="#F9FFF9" stroke-width="0.3"/>
<path d="M47.4807 32.6985H43.781C43.4405 32.6985 43.1643 32.446 43.1643 32.1347C43.1643 31.8234 43.4405 31.5709 43.781 31.5709H47.4807C52.5806 31.5709 56.7301 27.7769 56.7301 23.114C56.7301 18.4511 52.5806 14.6571 47.4807 14.6571H47.3917C47.2129 14.6571 47.0429 14.5862 46.9257 14.4626C46.8086 14.339 46.7557 14.1751 46.7813 14.0132C46.8363 13.662 46.8641 13.3092 46.8641 12.9657C46.8641 8.92456 43.2677 5.63639 38.8479 5.63639C37.1284 5.63639 35.4886 6.12769 34.1055 7.05754C33.8016 7.26171 33.37 7.1711 33.1942 6.86544C29.2774 0.0459978 19.0469 -0.869784 13.7429 5.06254C11.5085 7.56174 10.6306 10.8128 11.3341 13.9814C11.4116 14.3313 11.1187 14.6575 10.7298 14.6575H10.4827C5.38281 14.6575 1.23331 18.4515 1.23331 23.1144C1.23331 27.7773 5.38281 31.5713 10.4827 31.5713H14.1824C14.5229 31.5713 14.7991 31.8238 14.7991 32.1351C14.7991 32.4464 14.5229 32.6989 14.1824 32.6989H10.4827C4.70267 32.6989 0 28.3992 0 23.1144C0 17.9778 4.44232 13.7719 9.99865 13.54C9.47672 10.2526 10.4748 6.9367 12.788 4.34894C18.4667 -2.00297 29.3494 -1.291 33.9498 5.79184C35.4174 4.95058 37.0968 4.50925 38.8477 4.50925C44.2026 4.50925 48.4459 8.67651 48.0746 13.5452C53.5798 13.8275 57.9631 18.0112 57.9631 23.114C57.9631 28.3992 53.2604 32.6985 47.4804 32.6985L47.4807 32.6985Z" fill="#FF3220"/>
<path d="M13.3332 31.8163C13.3332 39.6835 20.3288 46.0613 28.899 46.0613C37.4693 46.0613 44.4649 39.6834 44.4649 31.8163C44.4649 23.949 37.4693 17.5713 28.899 17.5713C20.3287 17.5713 13.3332 23.9491 13.3332 31.8163ZM14.8667 31.8163C14.8667 24.7615 21.1488 18.9992 28.899 18.9992C36.6491 18.9992 42.9313 24.7614 42.9313 31.8163C42.9313 38.871 36.6491 44.6334 28.899 44.6334C21.1489 44.6334 14.8667 38.8711 14.8667 31.8163Z" fill="#FF3220" stroke="#F9FFF9" stroke-width="0.3"/>
<path d="M28.5795 37.4904C28.5795 37.8135 28.8618 38.0531 29.1809 38.0531C29.5 38.0531 29.7824 37.8139 29.7824 37.4904V26.7585C29.7824 26.4354 29.5001 26.1958 29.1809 26.1958C28.8618 26.1958 28.5795 26.4354 28.5795 26.7585V37.4904Z" fill="#FF3220" stroke="#FF3220" stroke-width="0.3"/>
<path d="M32.3719 30.4642C32.4899 30.5721 32.6428 30.6244 32.7923 30.6244L28.7603 26.3571L25.1489 29.659C24.9074 29.8798 24.9074 30.2435 25.1489 30.4642C25.3825 30.6778 25.7564 30.6779 25.9898 30.4641C25.9898 30.4641 25.9899 30.4641 25.9899 30.4641L29.1808 27.5466L32.3719 30.4642ZM29.6013 26.357C29.3677 26.1434 28.9938 26.1432 28.7604 26.357L33.213 30.464C33.4542 30.2433 33.4541 29.8797 33.2128 29.659L29.6013 26.357Z" fill="#FF3220" stroke="#FF3220" stroke-width="0.3"/>
</svg>
